# xmcd
#
# Track frame offsets:
#	150
#	9759
#	19432
#	36551
#	49114
#	64694
#	76616
#	92885
#	106792
#	117252
#	134656
#	146223
#	168574
#
# Disc length: 2309 seconds
#
# Revision: 1
# Processed by: cddbd v1.5.1PL2 Copyright (c) Steve Scherf et al.
# Submitted via: audiograbber 1.83.01
#
DISCID=af09030d
DTITLE=Williams and Clark Expedition - Born To Roam
DYEAR=2003
DGENRE=Bluegrass
TTITLE0=Standin' On The Mountain
TTITLE1=A Better Day
TTITLE2=Across The Blue Ridge Mountain
TTITLE3=Expedition
TTITLE4=Fly Away Home
TTITLE5=Born To Roam
TTITLE6=West Texas Again
TTITLE7=No End Of Love
TTITLE8=Trigger Happy
TTITLE9=Around This Fire
TTITLE10=Together All Alone
TTITLE11=Let Me Fly Low
TTITLE12=Expedition (reprise)
EXTD=
EXTT0=
EXTT1=
EXTT2=
EXTT3=
EXTT4=
EXTT5=
EXTT6=
EXTT7=
EXTT8=
EXTT9=
EXTT10=
EXTT11=
EXTT12=
PLAYORDER=
